<?xml version="1.0" encoding="UTF-8" standalone="no"?>
<!-- Created with Inkscape (http://www.inkscape.org/) -->

<svg
   width="102.5996mm"
   height="95.608513mm"
   viewBox="0 0 102.5996 95.608513"
   version="1.1"
   id="svg1"
   xmlns:inkscape="http://www.inkscape.org/namespaces/inkscape"
   xmlns:sodipodi="http://sodipodi.sourceforge.net/DTD/sodipodi-0.dtd"
   xmlns="http://www.w3.org/2000/svg"
   xmlns:svg="http://www.w3.org/2000/svg">
  <sodipodi:namedview
     id="namedview1"
     pagecolor="#ffffff"
     bordercolor="#000000"
     borderopacity="0.25"
     inkscape:showpageshadow="2"
     inkscape:pageopacity="0.0"
     inkscape:pagecheckerboard="0"
     inkscape:deskcolor="#d1d1d1"
     inkscape:document-units="mm" />
  <defs
     id="defs1" />
  <g
     inkscape:label="Camada 1"
     inkscape:groupmode="layer"
     id="layer1"
     transform="translate(-51.064584,-6.6145809)">
    <g
       id="g2"
       transform="translate(26.987499,-0.264586)"
       inkscape:export-filename="g2.svg"
       inkscape:export-xdpi="96"
       inkscape:export-ydpi="96">
      <g
         id="Shadow"
         transform="matrix(0.26458333,0,0,0.26458333,9.2310503,-10.49364)">
	<ellipse
   id="_x3C_Path_x3E__359_"
   style="fill:#facc15"
   cx="250"
   cy="415.69299"
   rx="193.88901"
   ry="11.323" />

</g>
      <g
         id="Wall"
         transform="matrix(0.26458333,0,0,0.26458333,9.2310503,-10.49364)">
	<g
   id="g157">
		<g
   id="g151">
			<rect
   x="56.111"
   y="65.661003"
   style="fill:#263238"
   width="187.99699"
   height="350.03201"
   id="rect150" />

			<rect
   x="56.111"
   y="65.661003"
   style="opacity:0.7;fill:#888888"
   width="187.99699"
   height="350.03201"
   id="rect151" />

		</g>

		<g
   id="g152">
			<path
   style="fill:#333333"
   d="m 171.496,315.158 h 19.063 c 3.737,0 6.766,-3.029 6.766,-6.766 v -3.483 c 0,-3.737 -3.029,-6.766 -6.766,-6.766 h -19.063 c -3.737,0 -6.766,3.029 -6.766,6.766 v 3.483 c -10e-4,3.736 3.029,6.766 6.766,6.766 z"
   id="path151" />

			<path
   style="fill:#333333"
   d="m 157.447,335.267 h 19.063 c 3.737,0 6.766,-3.029 6.766,-6.766 v -3.483 c 0,-3.737 -3.029,-6.766 -6.766,-6.766 h -19.063 c -3.737,0 -6.766,3.029 -6.766,6.766 v 3.483 c 0,3.736 3.029,6.766 6.766,6.766 z"
   id="path152" />

		</g>

		<g
   id="g154">
			<path
   style="fill:#333333"
   d="m 94.606,233.187 h 19.063 c 3.737,0 6.766,-3.029 6.766,-6.766 v -3.483 c 0,-3.737 -3.029,-6.766 -6.766,-6.766 H 94.606 c -3.737,0 -6.766,3.029 -6.766,6.766 v 3.483 c 0,3.736 3.029,6.766 6.766,6.766 z"
   id="path153" />

			<path
   style="fill:#333333"
   d="m 80.558,253.296 h 19.063 c 3.737,0 6.766,-3.029 6.766,-6.766 v -3.483 c 0,-3.737 -3.029,-6.766 -6.766,-6.766 H 80.558 c -3.737,0 -6.766,3.029 -6.766,6.766 v 3.483 c -0.001,3.736 3.029,6.766 6.766,6.766 z"
   id="path154" />

		</g>

		<g
   id="g156">
			<path
   style="fill:#facc15"
   d="m 171.496,111.009 h 19.063 c 3.737,0 6.766,-3.029 6.766,-6.766 v -3.483 c 0,-3.737 -3.029,-6.766 -6.766,-6.766 h -19.063 c -3.737,0 -6.766,3.029 -6.766,6.766 v 3.483 c -10e-4,3.737 3.029,6.766 6.766,6.766 z"
   id="path155" />

			<path
   style="fill:#333333"
   d="m 157.447,131.118 h 19.063 c 3.737,0 6.766,-3.029 6.766,-6.766 v -3.483 c 0,-3.737 -3.029,-6.766 -6.766,-6.766 h -19.063 c -3.737,0 -6.766,3.029 -6.766,6.766 v 3.483 c 0,3.737 3.029,6.766 6.766,6.766 z"
   id="path156" />

		</g>

	</g>

</g>
      <g
         id="Paint"
         transform="matrix(0.26458333,0,0,0.26458333,9.2310503,-10.49364)">
	<g
   id="g162">
		<path
   style="fill:#facc15"
   d="m 411.291,264.874 h -31.814 c -2.563,0 -4.64,-2.077 -4.64,-4.64 v -46.33 h 41.095 v 46.33 c -0.001,2.562 -2.078,4.64 -4.641,4.64 z"
   id="path157" />

		<path
   style="fill:#263238"
   d="m 374.422,214.276 1.984,1.413 c 0.904,0.643 2.115,0.643 3.019,0 l 0.475,-0.338 c 0.903,-0.643 2.115,-0.643 3.019,0 l 0.475,0.338 c 0.903,0.643 2.115,0.643 3.019,0 l 0.475,-0.338 c 0.903,-0.643 2.115,-0.643 3.019,0 l 0.475,0.338 c 0.903,0.643 2.115,0.643 3.019,0 l 0.475,-0.338 c 0.903,-0.643 2.115,-0.643 3.019,0 l 0.475,0.338 c 0.904,0.643 2.115,0.643 3.019,0 l 0.475,-0.338 c 0.903,-0.643 2.115,-0.643 3.019,0 l 0.475,0.338 c 0.904,0.643 2.115,0.643 3.019,0 l 0.475,-0.338 c 0.904,-0.643 2.115,-0.643 3.019,0 l 0.475,0.338 c 0.903,0.643 2.115,0.643 3.019,0 l 1.984,-1.413 z"
   id="path158" />

		<path
   style="opacity:0.7;fill:#888888"
   d="m 415.931,234.225 c -3.288,2.154 -8.771,3.691 -17.15,0.305 -0.123,-0.05 -0.246,-0.099 -0.369,-0.147 -11.344,-4.428 -23.576,4.052 -23.576,16.23 v 0.376 c 3.606,-2.842 11.346,-7.23 20.547,-2.222 0.088,0.048 0.177,0.095 0.264,0.142 9.196,4.89 20.283,-1.925 20.283,-12.34 v -2.344 z"
   id="path159" />

		<g
   id="g160">
			<path
   style="fill:#263238"
   d="m 382.3,242.131 c -3.34,0 -5.976,-0.993 -7.836,-2.95 -6.772,-7.128 -1.055,-24.645 -0.808,-25.388 l 1.025,0.223 c -0.059,0.177 -5.83,17.852 0.626,24.644 1.648,1.735 4.002,2.614 6.993,2.614 16.746,0 23.942,-27.183 24.013,-27.457 l 1.039,0.174 c -0.018,0.07 -1.848,7.077 -5.79,13.991 -5.276,9.256 -11.937,14.149 -19.262,14.149 z"
   id="path160" />

		</g>

		<g
   id="g161">
			<path
   style="fill:#263238"
   d="m 416.464,214.617 h -42.16 c -0.394,0 -0.714,-0.32 -0.714,-0.714 v 0 c 0,-0.394 0.319,-0.714 0.714,-0.714 h 42.16 c 0.394,0 0.714,0.319 0.714,0.714 v 0 c -10e-4,0.395 -0.32,0.714 -0.714,0.714 z"
   id="path161" />

		</g>

	</g>

</g>
      <g
         id="Character"
         transform="matrix(0.26458333,0,0,0.26458333,9.2310503,-10.49364)">
	<g
   id="g197">
		<g
   id="g163">
			<path
   style="fill:#facc15"
   d="m 250.427,97.171 -34.978,0.789 c -1.285,0.029 -2.351,-0.989 -2.38,-2.275 l -0.029,-1.274 c -0.029,-1.285 0.989,-2.351 2.275,-2.38 l 34.978,-0.788 c 1.285,-0.029 2.351,0.989 2.38,2.274 l 0.029,1.274 c 0.028,1.285 -0.99,2.351 -2.275,2.38 z"
   id="path162" />


				<rect
   x="213.05"
   y="93.355003"
   transform="matrix(0.9997,-0.0225,0.0225,0.9997,-2.0731,5.2728)"
   style="opacity:0.1;fill:#888888"
   width="39.641998"
   height="2.4920001"
   id="rect162" />

		</g>

		<path
   style="fill:#263238"
   d="m 218.459,94.926 c 0.037,1.637 -1.26,2.994 -2.898,3.031 -1.637,0.037 -2.994,-1.26 -3.031,-2.897 -0.037,-1.637 1.26,-2.994 2.898,-3.031 1.637,-0.038 2.994,1.26 3.031,2.897 z"
   id="path163" />

		<path
   style="fill:#222222"
   d="m 238.294,98.082 c -0.013,0 -0.026,0 -0.04,-10e-4 l -18.388,-1.419 c -1.094,-0.05 -1.135,-0.058 -2.171,-0.41 l -2.596,-0.861 c -0.262,-0.086 -0.405,-0.369 -0.318,-0.631 0.087,-0.262 0.366,-0.408 0.631,-0.318 l 2.604,0.864 c 0.921,0.313 0.921,0.313 1.895,0.357 l 0.876,0.044 17.544,1.377 c 0.275,0.021 0.481,0.262 0.46,0.538 -0.02,0.262 -0.239,0.46 -0.497,0.46 z"
   id="path164" />

		<g
   id="g165">
			<path
   style="fill:#222222"
   d="m 255.61,94.11 c 0,0.23 -0.17,0.43 -0.4,0.48 l -2.53,0.52 -10.89,2.26 -1.96,0.4 13.7,6.65 c 0.25,0.12 0.36,0.42 0.24,0.67 -0.09,0.18 -0.27,0.28 -0.45,0.28 -0.08,0 -0.15,-0.02 -0.22,-0.05 l -15.03,-7.29 c -0.19,-0.09 -0.3,-0.3 -0.27,-0.51 0,-0.02 0.01,-0.05 0.02,-0.07 0.04,-0.18 0.18,-0.32 0.37,-0.36 l 14.49,-3 0.13,-0.03 -0.13,-0.03 -0.01,-0.51 c 0,-0.18 -0.03,-0.36 -0.08,-0.53 l 2.64,0.62 c 0.23,0.06 0.39,0.26 0.38,0.5 z"
   id="path165" />

		</g>

		<g
   id="g166">
			<path
   style="fill:#263238"
   d="m 359.638,157.506 c 0.478,-0.011 0.933,-0.284 1.154,-0.744 0.313,-0.653 0.038,-1.437 -0.615,-1.75 L 246.18,100.072 c -0.654,-0.313 -1.436,-0.038 -1.75,0.615 -0.313,0.653 -0.038,1.437 0.615,1.75 l 113.997,54.939 c 0.192,0.093 0.396,0.135 0.596,0.13 z"
   id="path166" />

		</g>

		<path
   style="fill:#b55b52"
   d="m 268.755,122.668 -0.044,-0.799 5.81,3.383 c -2.386,1.54 -5.376,2.273 -8.474,1.792 -1.539,-0.249 -3.114,-0.81 -4.473,-1.76 -0.681,-0.463 -1.314,-1.012 -1.837,-1.635 -0.267,-0.308 -0.526,-0.619 -0.738,-0.955 -0.226,-0.333 -0.452,-0.671 -0.572,-0.944 -1.217,-2.316 -1.781,-4.616 -2.207,-6.863 -0.364,-2.273 -0.525,-4.465 -0.416,-6.76 l 2.861,-0.398 c 0.763,1.872 1.601,3.792 2.529,5.533 0.902,1.749 1.965,3.384 3.082,4.591 0.149,0.181 0.254,0.255 0.355,0.335 0.094,0.095 0.209,0.157 0.315,0.222 0.211,0.132 0.424,0.23 0.64,0.316 0.438,0.156 0.912,0.266 1.464,0.28 1.104,0.033 2.412,-0.256 3.735,-0.699 l 5.863,-1.965 -0.052,5.349 -0.008,0.8 z"
   id="path167" />

		<g
   id="g196">
			<polygon
   style="fill:#b55b52"
   points="314.902,126.588 315.648,132.149 311.047,134.754 309.427,128.25 "
   id="polygon167" />

			<g
   id="g169">
				<path
   style="fill:#222222"
   d="m 309.688,100.066 c 0,0 6.62,-0.726 8.353,7.89 1.733,8.616 6.758,18.216 0.531,23.55 l -3.603,2.293 c 0,0 -2.658,-2.729 -3.619,-6.939 l 2.035,-1.489 -1.721,-5.923 c 0,0 -4.622,-17.302 -1.976,-19.382 z"
   id="path168" />

				<path
   style="opacity:0.5;fill:#888888"
   d="m 309.688,100.066 c 0,0 6.62,-0.726 8.353,7.89 1.733,8.616 6.758,18.216 0.531,23.55 l -3.603,2.293 c 0,0 -2.658,-2.729 -3.619,-6.939 l 2.035,-1.489 -1.721,-5.923 c 0,0 -4.622,-17.302 -1.976,-19.382 z"
   id="path169" />

			</g>

			<g
   id="g173">
				<g
   id="g172">
					<path
   style="fill:#888888;fill-opacity:1"
   d="m 314.45,243.246 6.776,8.681 c 0.366,0.469 0.388,1.12 0.051,1.596 -0.7,0.988 -1.873,2.606 -2.467,3.209 -0.737,0.749 -2.763,2.254 -3.9,3.081 -0.471,0.342 -0.65,0.971 -0.437,1.533 v 0 c 0.259,0.683 1.004,1.033 1.664,0.782 l 15.187,-5.765 c 0.735,-0.279 1.038,-1.172 0.637,-1.878 l -9.024,-15.919 c -0.346,-0.61 -1.089,-0.847 -1.694,-0.541 l -6.387,3.229 c -0.724,0.367 -0.921,1.332 -0.406,1.992 z"
   id="path170" />

					<g
   id="g171">
						<path
   style="fill:#263238"
   d="m 312.168,142.519 -18.184,1.08 c 0,0 -0.127,53.793 1.446,67.312 1.412,12.135 15.505,25.663 18.341,32.169 0.261,0.599 0.775,1.031 1.411,0.932 l 7.969,-4.764 c 1.299,-1.158 -0.759,-2.123 -1.092,-2.751 -2.346,-4.417 -7.583,-12.531 -12.728,-26.923 -1.057,-2.957 -0.491,-28.133 0.342,-37.127 0.725,-7.823 6.732,-18.744 2.495,-29.928 z"
   id="path171" />

					</g>

				</g>

			</g>

			<path
   style="opacity:0.2"
   d="m 299.56,156.259 c 0,0 0.335,19.915 -5.053,40.998 -0.418,-8.116 -0.361,-29.099 -0.436,-37.322 l 2.22,-3.603 z"
   id="path173" />

			<g
   id="g176">
				<path
   style="fill:#888888;fill-opacity:1"
   d="m 277.613,245.722 1.116,11.505 c 0.048,0.493 -0.177,0.967 -0.589,1.232 -1.073,0.69 -3.158,2.004 -4.073,2.41 -1.026,0.455 -3.641,1.186 -5.076,1.573 -0.576,0.155 -0.969,0.689 -0.955,1.295 v 0 c 0.016,0.723 0.606,1.297 1.318,1.281 l 16.813,-0.379 c 0.697,-0.016 1.255,-0.592 1.259,-1.3 l 0.107,-17.521 c 0.004,-0.712 -0.552,-1.298 -1.253,-1.319 l -7.348,-0.212 c -0.776,-0.024 -1.395,0.65 -1.319,1.435 z"
   id="path174" />

				<g
   id="g175">
					<path
   style="fill:#263238"
   d="m 282.609,143.568 c 0,0 -7.88,53.191 -8.553,63.633 -0.61,9.464 1.912,31.326 2.378,38.29 0.042,0.624 0.557,1.101 1.172,1.087 l 9.701,-0.219 c 0.624,-0.014 1.122,-0.526 1.122,-1.16 0.001,-5.216 -0.072,-17.767 -0.837,-30.471 -0.296,-4.916 0.278,-9.842 1.653,-14.564 1.778,-6.103 5.073,-20.158 7.972,-29.203 2.291,-7.148 4.376,-9.331 4.981,-14.763 0.9,-8.085 -1.353,-13.042 -1.353,-13.042 z"
   id="path175" />

				</g>

			</g>

			<path
   style="fill:#b55b52"
   d="m 303.501,98.516 c 0,0 -3.638,-0.282 -3.748,-6.961 0,0 -3.39,-1.447 -5.512,0.58 -2.122,2.027 2.124,6.534 -0.524,8.54 -2.649,2.006 9.784,-2.159 9.784,-2.159 z"
   id="path176" />

			<g
   id="g178">
				<path
   style="fill:#222222"
   d="m 281.556,102.087 c 0,0 -3.089,-1.978 -8.08,6.982 l -5.693,8.957 -2.937,-0.027 c 0,0 -1.989,5.623 0.199,8.843 0,0 5.079,5.7 16.853,-9.568 l 2.278,-9.861 z"
   id="path177" />

				<path
   style="opacity:0.5;fill:#888888"
   d="m 281.556,102.087 c 0,0 -3.089,-1.978 -8.08,6.982 l -5.693,8.957 -2.937,-0.027 c 0,0 -1.989,5.623 0.199,8.843 0,0 5.079,5.7 16.853,-9.568 l 2.278,-9.861 z"
   id="path178" />

			</g>

			<path
   style="fill:#000000"
   d="m 313.1,143.931 c 0,0 -19.918,3.783 -31.016,0.699 0,0 1.927,-4.747 -2.334,-23.116 0,0 3.625,-9.827 -0.439,-19.481 0,0 15.276,-4.961 31.488,-2.505 0,0 1.63,7.577 2.182,17.134 0.48,8.325 1.212,7.498 0.119,27.269 z"
   id="path179" />

			<path
   style="fill:#222222"
   d="m 304.594,100.181 c 0,0 0.669,-4.439 -6.811,-3.501 -7.48,0.938 -8.739,4.813 -8.739,4.813 z"
   id="path180" />

			<g
   id="g182">
				<path
   style="fill:#facc15"
   d="m 313.34,139.737 c -4.868,0.649 -12.779,1.483 -22.461,1.702 -2.679,0.06 -5.505,0.067 -8.428,0.016 -0.013,-0.956 -0.046,-1.981 -0.104,-3.074 13.782,0.253 25.111,-0.943 31.102,-1.763 -0.03,0.982 -0.067,2.022 -0.109,3.119 z"
   id="path181" />

				<path
   style="opacity:0.8;fill:#888888;fill-opacity:1"
   d="m 313.385,139.736 c -4.868,0.649 -12.824,1.484 -22.506,1.702 -2.679,0.06 -5.505,0.067 -8.428,0.016 -0.013,-0.956 -0.046,-1.981 -0.104,-3.074 13.782,0.253 25.156,-0.944 31.147,-1.764 -0.03,0.983 -0.067,2.023 -0.109,3.12 z"
   id="path182" />

			</g>

			<path
   style="fill:#facc15"
   d="m 290.979,128.824 c -0.06,-7.404 -1.04,-23.28 -5.196,-27.38 -0.475,-0.468 -0.893,-0.67 -1.236,-0.753 1.175,-0.254 2.518,-0.515 4,-0.759 2.379,2.948 4.022,8.792 4.885,17.415 0.472,4.717 0.59,9.028 0.617,11.294 5.98,-0.421 11.116,-1.131 15.05,-1.812 -0.155,-3.819 -0.664,-14.841 -1.557,-20.223 -0.708,-4.269 -1.491,-6.587 -1.912,-7.621 1.116,0.071 2.244,0.171 3.38,0.306 0.476,1.471 1.044,3.656 1.568,6.812 0.899,5.421 1.405,15.939 1.579,20.161 0.439,-0.087 1.05,-0.231 1.439,-0.312 0.02,0.992 0.032,2.033 0.033,3.152 -5.369,1.105 -14.925,2.693 -26.574,2.956 -1.751,0.04 -3.56,0.046 -5.408,0.023 -0.124,-0.991 -0.27,-2.019 -0.437,-3.081 3.417,0.048 6.686,-0.023 9.769,-0.178 z"
   id="path183" />

			<path
   style="opacity:0.8;fill:#888888;fill-opacity:1"
   d="m 290.979,128.824 c -0.06,-7.404 -1.04,-23.28 -5.196,-27.38 -0.475,-0.468 -0.893,-0.67 -1.236,-0.753 1.175,-0.254 2.518,-0.515 4,-0.759 2.379,2.948 4.022,8.792 4.885,17.415 0.472,4.717 0.59,9.028 0.617,11.294 5.98,-0.421 11.116,-1.131 15.05,-1.812 -0.155,-3.819 -0.664,-14.841 -1.557,-20.223 -0.708,-4.269 -1.491,-6.587 -1.912,-7.621 1.116,0.071 2.244,0.171 3.38,0.306 0.476,1.471 1.044,3.656 1.568,6.812 0.899,5.421 1.405,15.939 1.579,20.161 0.439,-0.087 1.035,-0.227 1.425,-0.309 0.02,0.992 0.047,2.029 0.048,3.148 -5.369,1.105 -14.925,2.693 -26.574,2.956 -1.751,0.04 -3.56,0.046 -5.408,0.023 -0.124,-0.991 -0.27,-2.019 -0.437,-3.081 3.416,0.049 6.685,-0.022 9.768,-0.177 z"
   id="path184" />

			<polygon
   style="fill:#222222"
   points="307.221,123.203 306.859,116.012 295.355,117.312 295.72,124.616 "
   id="polygon184" />

			<path
   style="fill:#263238"
   d="m 286.143,83.942 c -0.028,0.425 0.169,0.785 0.447,0.805 0.278,0.019 0.547,-0.326 0.563,-0.74 0.016,-0.414 -0.168,-0.785 -0.448,-0.8 -0.279,-0.016 -0.529,0.311 -0.562,0.735 z"
   id="path185" />

			<path
   style="fill:#a02724"
   d="m 287.558,84.634 -1.828,3.458 c 0,0 1.156,0.717 2.638,0.046 z"
   id="path186" />

			<path
   style="fill:#263238"
   d="m 288.33,82.106 c -0.063,0.041 -0.142,0.048 -0.212,0.02 -0.512,-0.237 -1.106,-0.214 -1.597,0.063 -0.102,0.067 -0.238,0.041 -0.308,-0.059 -0.067,-0.103 -0.039,-0.241 0.062,-0.31 0.614,-0.364 1.368,-0.404 2.017,-0.106 0.114,0.048 0.167,0.179 0.119,0.293 v 10e-4 c -0.017,0.04 -0.045,0.074 -0.081,0.098 z"
   id="path187" />

			<path
   style="fill:#b55b52"
   d="m 302.684,82.207 c -0.129,5.662 -0.061,8.066 -2.803,11.075 -4.246,3.12 -11.06,3.133 -12.624,-2.458 -1.41,-5.03 -0.962,-13.424 4.485,-15.917 3.883,-1.775 8.471,-0.066 10.246,3.817 0.499,1.091 0.737,2.283 0.696,3.483 z"
   id="path188" />

			<path
   style="fill:#263238"
   d="m 290.577,86.2 c 0,0 -1.055,-4.144 -0.12,-5.319 0.935,-1.175 0.381,-1.431 -0.675,-2.421 -1.056,-0.99 -2.377,-1.76 -1.05,-3.715 5.651,-8.327 16.447,-2.326 16.938,3.447 0.183,2.153 -1.126,6.402 -1.221,6.668 -1.838,5.146 -4.567,8.421 -4.567,8.421 -2.147,0.446 -3.917,-0.185 -2.924,0.066 -0.001,0.001 -5.428,-4.668 -6.381,-7.147 z"
   id="path189" />

			<path
   style="fill:#b55b52"
   d="m 290.987,84.074 c -0.682,0.935 -0.963,2.103 -0.781,3.246 0.252,1.514 1.771,1.634 2.865,0.682 0.992,-0.862 2.041,-2.684 1.225,-3.952 -0.816,-1.267 -2.463,-1.11 -3.309,0.024 z"
   id="path190" />

			<g
   id="g195">
				<g
   id="g193">
					<path
   style="fill:#263238"
   d="m 305.509,79.952 c 0.039,1.742 -0.348,3.401 -1.06,4.909 -4.643,-0.424 -8.308,-2.266 -9.277,-4.676 z"
   id="path191" />

					<path
   style="opacity:0.6;fill:#888888"
   d="m 305.509,79.952 c 0.039,1.742 -0.348,3.401 -1.06,4.909 -4.643,-0.424 -8.308,-2.266 -9.277,-4.676 z"
   id="path192" />

					<path
   style="fill:#263238"
   d="m 305.39,81.799 c 0,0 -0.282,1.358 -0.425,1.765 0,0 -1.514,0.881 -5.932,-1.785"
   id="path193" />

				</g>

				<path
   style="fill:#222222"
   d="m 286.062,79.555 c 0.173,-5.198 4.48,-9.379 9.781,-9.498 5.301,-0.119 9.673,3.866 10.35,9.045 0.33,-0.007 0.649,-0.015 0.983,-0.022 1.074,-0.024 1.113,1.645 0.038,1.669 -8.902,0.201 -16.321,0.368 -25.223,0.569 -1.074,0.023 2.728,-1.733 4.071,-1.763 z"
   id="path194" />

				<path
   style="opacity:0.1"
   d="m 306.193,79.098 -20.13,0.454 c 0.036,-1.069 0.194,-2.09 0.459,-3.044 l 18.645,-0.42 c 0.521,0.936 0.886,1.945 1.026,3.01 z"
   id="path195" />

			</g>

		</g>

		<path
   style="fill:#b55b52"
   d="m 256.273,109.181 2.931,0.317 c 0,0 -0.113,-1.958 -0.804,-3.049 -0.688,-1.086 -0.997,-1.63 -1.136,-1.896 -0.086,-0.164 -0.226,-0.286 -0.398,-0.355 l -2.13,-0.853 c -0.603,-0.242 -1.224,0.316 -1.043,0.94 0.228,0.784 0.418,1.643 0.288,2.007 z"
   id="path196" />

	</g>

</g>
      <g
         id="Scaffold"
         transform="matrix(0.26458333,0,0,0.26458333,9.2310503,-10.49364)">
	<g
   id="g200">
		<g
   id="g198">
			<path
   style="fill:#222222"
   d="m 367.815,409.323 c -0.165,0 -0.334,-0.027 -0.499,-0.085 L 66.695,303.235 c -0.781,-0.275 -1.191,-1.133 -0.916,-1.914 0.275,-0.781 1.133,-1.188 1.914,-0.916 l 300.622,106.003 c 0.781,0.276 1.191,1.133 0.915,1.914 -0.217,0.617 -0.796,1.001 -1.415,1.001 z"
   id="path197" />

		</g>

		<g
   id="g199">
			<path
   style="fill:#222222"
   d="m 67.194,407.26 c -0.618,0 -1.197,-0.385 -1.415,-1.001 -0.275,-0.781 0.134,-1.638 0.916,-1.914 L 364.679,299.273 c 0.782,-0.273 1.638,0.135 1.914,0.916 0.275,0.781 -0.134,1.638 -0.915,1.914 L 67.693,407.175 c -0.165,0.057 -0.334,0.085 -0.499,0.085 z"
   id="path198" />

		</g>

		<path
   style="opacity:0.4;fill:#888888"
   d="M 368.315,406.408 219.091,353.79 365.677,302.102 c 0.781,-0.276 1.191,-1.133 0.915,-1.914 -0.275,-0.781 -1.132,-1.19 -1.914,-0.916 l -150.1,52.927 -146.885,-51.794 c -0.781,-0.272 -1.638,0.135 -1.914,0.916 -0.275,0.781 0.134,1.639 0.916,1.914 L 210.067,353.79 66.695,404.345 c -0.781,0.276 -1.191,1.133 -0.916,1.914 0.217,0.616 0.796,1.001 1.415,1.001 0.166,0 0.334,-0.027 0.499,-0.085 l 146.886,-51.794 152.737,53.857 c 0.165,0.058 0.333,0.085 0.499,0.085 0.618,0 1.197,-0.385 1.415,-1.001 0.275,-0.781 -0.134,-1.637 -0.915,-1.914 z"
   id="path199" />

	</g>

	<g
   id="g226">
		<g
   id="g225">
			<g
   id="g203">
				<g
   id="g201">
					<path
   style="fill:#222222"
   d="m 364.235,417.692 c -1.104,0 -2,-0.896 -2,-2 V 265.791 c 0,-1.104 0.896,-2 2,-2 1.104,0 2,0.896 2,2 v 149.901 c 0,1.105 -0.896,2 -2,2 z"
   id="path200" />

				</g>

				<g
   style="opacity:0.4"
   id="g202">
					<path
   style="fill:#888888"
   d="m 364.235,417.692 c -1.104,0 -2,-0.896 -2,-2 V 265.791 c 0,-1.104 0.896,-2 2,-2 1.104,0 2,0.896 2,2 v 149.901 c 0,1.105 -0.896,2 -2,2 z"
   id="path201" />

				</g>

			</g>

			<g
   id="g213">
				<g
   id="g204">
					<path
   style="fill:#222222"
   d="m 439.965,271.105 h -75.73 c -1.104,0 -2,-0.896 -2,-2 0,-1.104 0.896,-2 2,-2 h 75.73 c 1.104,0 2,0.896 2,2 0,1.104 -0.895,2 -2,2 z"
   id="path203" />

				</g>

				<g
   id="g205">
					<path
   style="fill:#222222"
   d="m 439.965,305.785 h -75.73 c -1.104,0 -2,-0.896 -2,-2 0,-1.104 0.896,-2 2,-2 h 75.73 c 1.104,0 2,0.896 2,2 0,1.105 -0.895,2 -2,2 z"
   id="path204" />

				</g>

				<g
   id="g206">
					<path
   style="fill:#222222"
   d="m 439.965,340.465 h -75.73 c -1.104,0 -2,-0.896 -2,-2 0,-1.104 0.896,-2 2,-2 h 75.73 c 1.104,0 2,0.896 2,2 0,1.104 -0.895,2 -2,2 z"
   id="path205" />

				</g>

				<g
   id="g207">
					<path
   style="fill:#222222"
   d="m 439.965,375.144 h -75.73 c -1.104,0 -2,-0.896 -2,-2 0,-1.104 0.896,-2 2,-2 h 75.73 c 1.104,0 2,0.896 2,2 0,1.104 -0.895,2 -2,2 z"
   id="path206" />

				</g>

				<g
   id="g208">
					<path
   style="fill:#222222"
   d="m 439.965,409.823 h -75.73 c -1.104,0 -2,-0.896 -2,-2 0,-1.104 0.896,-2 2,-2 h 75.73 c 1.104,0 2,0.896 2,2 0,1.105 -0.895,2 -2,2 z"
   id="path207" />

				</g>

				<g
   id="g209">
					<path
   style="fill:#222222"
   d="m 439.965,305.785 h -75.73 c -1.104,0 -2,-0.896 -2,-2 0,-1.104 0.896,-2 2,-2 h 75.73 c 1.104,0 2,0.896 2,2 0,1.105 -0.895,2 -2,2 z"
   id="path208" />

				</g>

				<g
   id="g210">
					<path
   style="fill:#222222"
   d="m 439.965,340.465 h -75.73 c -1.104,0 -2,-0.896 -2,-2 0,-1.104 0.896,-2 2,-2 h 75.73 c 1.104,0 2,0.896 2,2 0,1.104 -0.895,2 -2,2 z"
   id="path209" />

				</g>

				<g
   id="g211">
					<path
   style="fill:#222222"
   d="m 439.965,375.144 h -75.73 c -1.104,0 -2,-0.896 -2,-2 0,-1.104 0.896,-2 2,-2 h 75.73 c 1.104,0 2,0.896 2,2 0,1.104 -0.895,2 -2,2 z"
   id="path210" />

				</g>

				<g
   id="g212">
					<path
   style="fill:#222222"
   d="m 439.965,409.823 h -75.73 c -1.104,0 -2,-0.896 -2,-2 0,-1.104 0.896,-2 2,-2 h 75.73 c 1.104,0 2,0.896 2,2 0,1.105 -0.895,2 -2,2 z"
   id="path211" />

				</g>

			</g>

			<g
   style="opacity:0.2"
   id="g223">
				<g
   id="g214">
					<path
   style="fill:#888888"
   d="m 439.965,271.105 h -75.73 c -1.104,0 -2,-0.896 -2,-2 0,-1.104 0.896,-2 2,-2 h 75.73 c 1.104,0 2,0.896 2,2 0,1.104 -0.895,2 -2,2 z"
   id="path213" />

				</g>

				<g
   id="g215">
					<path
   style="fill:#888888"
   d="m 439.965,305.785 h -75.73 c -1.104,0 -2,-0.896 -2,-2 0,-1.104 0.896,-2 2,-2 h 75.73 c 1.104,0 2,0.896 2,2 0,1.105 -0.895,2 -2,2 z"
   id="path214" />

				</g>

				<g
   id="g216">
					<path
   style="fill:#888888"
   d="m 439.965,340.465 h -75.73 c -1.104,0 -2,-0.896 -2,-2 0,-1.104 0.896,-2 2,-2 h 75.73 c 1.104,0 2,0.896 2,2 0,1.104 -0.895,2 -2,2 z"
   id="path215" />

				</g>

				<g
   id="g217">
					<path
   style="fill:#888888"
   d="m 439.965,375.144 h -75.73 c -1.104,0 -2,-0.896 -2,-2 0,-1.104 0.896,-2 2,-2 h 75.73 c 1.104,0 2,0.896 2,2 0,1.104 -0.895,2 -2,2 z"
   id="path216" />

				</g>

				<g
   id="g218">
					<path
   style="fill:#888888"
   d="m 439.965,409.823 h -75.73 c -1.104,0 -2,-0.896 -2,-2 0,-1.104 0.896,-2 2,-2 h 75.73 c 1.104,0 2,0.896 2,2 0,1.105 -0.895,2 -2,2 z"
   id="path217" />

				</g>

				<g
   id="g219">
					<path
   style="fill:#888888"
   d="m 439.965,305.785 h -75.73 c -1.104,0 -2,-0.896 -2,-2 0,-1.104 0.896,-2 2,-2 h 75.73 c 1.104,0 2,0.896 2,2 0,1.105 -0.895,2 -2,2 z"
   id="path218" />

				</g>

				<g
   id="g220">
					<path
   style="fill:#888888"
   d="m 439.965,340.465 h -75.73 c -1.104,0 -2,-0.896 -2,-2 0,-1.104 0.896,-2 2,-2 h 75.73 c 1.104,0 2,0.896 2,2 0,1.104 -0.895,2 -2,2 z"
   id="path219" />

				</g>

				<g
   id="g221">
					<path
   style="fill:#888888"
   d="m 439.965,375.144 h -75.73 c -1.104,0 -2,-0.896 -2,-2 0,-1.104 0.896,-2 2,-2 h 75.73 c 1.104,0 2,0.896 2,2 0,1.104 -0.895,2 -2,2 z"
   id="path220" />

				</g>

				<g
   id="g222">
					<path
   style="fill:#888888"
   d="m 439.965,409.823 h -75.73 c -1.104,0 -2,-0.896 -2,-2 0,-1.104 0.896,-2 2,-2 h 75.73 c 1.104,0 2,0.896 2,2 0,1.105 -0.895,2 -2,2 z"
   id="path221" />

				</g>

			</g>

			<g
   id="g224">
				<path
   style="fill:#222222"
   d="m 439.965,417.692 c -1.104,0 -2,-0.896 -2,-2 V 265.791 c 0,-1.104 0.896,-2 2,-2 1.104,0 2,0.896 2,2 v 149.901 c 0,1.105 -0.895,2 -2,2 z"
   id="path223" />

			</g>

		</g>


			<line
   style="fill:none;stroke:#222222;stroke-width:4;stroke-linecap:round;stroke-linejoin:round;stroke-miterlimit:10"
   x1="439.965"
   y1="267.67999"
   x2="364.23499"
   y2="267.67999"
   id="line225" />

	</g>

	<g
   id="g228">
		<path
   style="fill:#222222"
   d="m 66.246,417.693 c -1.104,0 -2,-0.896 -2,-2 V 267.878 c 0,-1.104 0.896,-2 2,-2 1.104,0 2,0.896 2,2 v 147.814 c 0,1.105 -0.895,2.001 -2,2.001 z"
   id="path226" />

		<g
   style="opacity:0.2"
   id="g227">
			<path
   style="fill:#888888"
   d="m 66.246,417.693 c -1.104,0 -2,-0.896 -2,-2 V 267.878 c 0,-1.104 0.896,-2 2,-2 1.104,0 2,0.896 2,2 v 147.814 c 0,1.105 -0.895,2.001 -2,2.001 z"
   id="path227" />

		</g>

	</g>

	<g
   id="g229">
		<path
   style="fill:#222222"
   d="m 366.23,136.98 v 127.86 h -4 V 136.98 c 0,-1.1 0.9,-2 2,-2 1.11,0 2,0.9 2,2 z"
   id="path228" />

		<path
   style="opacity:0.4;fill:#888888"
   d="m 366.23,136.98 v 127.86 h -4 V 136.98 c 0,-1.1 0.9,-2 2,-2 1.11,0 2,0.9 2,2 z"
   id="path229" />

	</g>

	<g
   id="g234">
		<g
   id="g230">
			<path
   style="fill:#222222"
   d="m 439.965,144.921 h -75.73 c -1.104,0 -2,-0.895 -2,-2 0,-1.104 0.896,-2 2,-2 h 75.73 c 1.104,0 2,0.896 2,2 0,1.104 -0.895,2 -2,2 z"
   id="path230" />

		</g>

		<g
   id="g231">
			<path
   style="fill:#222222"
   d="m 439.965,206.227 h -75.73 c -1.104,0 -2,-0.895 -2,-2 0,-1.104 0.896,-2 2,-2 h 75.73 c 1.104,0 2,0.896 2,2 0,1.105 -0.895,2 -2,2 z"
   id="path231" />

		</g>

		<g
   style="opacity:0.2"
   id="g232">
			<path
   style="fill:#888888"
   d="m 439.965,144.921 h -75.73 c -1.104,0 -2,-0.895 -2,-2 0,-1.104 0.896,-2 2,-2 h 75.73 c 1.104,0 2,0.896 2,2 0,1.104 -0.895,2 -2,2 z"
   id="path232" />

		</g>

		<g
   style="opacity:0.2"
   id="g233">
			<path
   style="fill:#888888"
   d="m 439.965,206.227 h -75.73 c -1.104,0 -2,-0.895 -2,-2 0,-1.104 0.896,-2 2,-2 h 75.73 c 1.104,0 2,0.896 2,2 0,1.105 -0.895,2 -2,2 z"
   id="path233" />

		</g>

	</g>

	<g
   id="g235">
		<path
   style="fill:#222222"
   d="m 365.945,150.049 h -48.314 v -0.001 c 0,-0.829 -0.683,-1.5 -1.526,-1.5 -0.843,0 -1.526,0.671 -1.526,1.5 v 0.001 H 124.961 v -0.001 c 0,-0.829 -0.683,-1.5 -1.526,-1.5 -0.843,0 -1.526,0.671 -1.526,1.5 v 0.001 H 64.796 v 45.624 h 57.113 v 0.005 c 0,0.829 0.683,1.5 1.526,1.5 0.843,0 1.526,-0.671 1.526,-1.5 v -0.005 h 189.618 v 0.005 c 0,0.829 0.683,1.5 1.526,1.5 0.843,0 1.526,-0.671 1.526,-1.5 v -0.005 h 48.314 z M 67.848,192.673 v -39.624 h 54.061 v 39.624 z m 57.113,0 v -39.624 h 189.618 v 39.624 z m 237.932,0 h -45.262 v -39.624 h 45.262 z"
   id="path234" />

		<path
   style="opacity:0.4;fill:#888888"
   d="m 365.945,150.049 h -48.314 v -0.001 c 0,-0.829 -0.683,-1.5 -1.526,-1.5 -0.843,0 -1.526,0.671 -1.526,1.5 v 0.001 H 124.961 v -0.001 c 0,-0.829 -0.683,-1.5 -1.526,-1.5 -0.843,0 -1.526,0.671 -1.526,1.5 v 0.001 H 64.796 v 45.624 h 57.113 v 0.005 c 0,0.829 0.683,1.5 1.526,1.5 0.843,0 1.526,-0.671 1.526,-1.5 v -0.005 h 189.618 v 0.005 c 0,0.829 0.683,1.5 1.526,1.5 0.843,0 1.526,-0.671 1.526,-1.5 v -0.005 h 48.314 z M 67.848,192.673 v -39.624 h 54.061 v 39.624 z m 57.113,0 v -39.624 h 189.618 v 39.624 z m 237.932,0 h -45.262 v -39.624 h 45.262 z"
   id="path235" />

	</g>

	<g
   id="g249">
		<g
   id="g238">
			<path
   style="fill:#222222"
   d="m 66.247,271.105 c -1.104,0 -2,-0.896 -2,-2 V 136.98 c 0,-1.104 0.896,-2 2,-2 1.104,0 2,0.896 2,2 v 132.126 c 0,1.104 -0.896,1.999 -2,1.999 z"
   id="path236" />

			<g
   style="opacity:0.2"
   id="g237">
				<path
   style="fill:#888888"
   d="m 66.247,271.105 c -1.104,0 -2,-0.896 -2,-2 V 136.98 c 0,-1.104 0.896,-2 2,-2 1.104,0 2,0.896 2,2 v 132.126 c 0,1.104 -0.896,1.999 -2,1.999 z"
   id="path237" />

			</g>

		</g>

		<g
   id="g248">
			<g
   id="g239">

					<line
   style="fill:none;stroke:#222222;stroke-width:4;stroke-linecap:round;stroke-linejoin:round;stroke-miterlimit:10"
   x1="439.965"
   y1="136.98"
   x2="439.965"
   y2="267.67999"
   id="line238" />

			</g>

			<g
   id="g240">
				<rect
   x="67.190002"
   y="264.84"
   style="fill:#263238"
   width="372.94"
   height="8.5699997"
   id="rect239" />

			</g>

			<g
   id="g247">
				<g
   id="g246">
					<g
   id="g241">
						<path
   style="fill:#222222"
   d="m 141.977,271.105 h -75.73 c -1.104,0 -2,-0.896 -2,-2 0,-1.104 0.896,-2 2,-2 h 75.73 c 1.104,0 2,0.896 2,2 0,1.104 -0.896,2 -2,2 z"
   id="path240" />

					</g>

					<g
   id="g242">
						<path
   style="fill:#222222"
   d="m 141.977,305.785 h -75.73 c -1.104,0 -2,-0.896 -2,-2 0,-1.104 0.896,-2 2,-2 h 75.73 c 1.104,0 2,0.896 2,2 0,1.105 -0.896,2 -2,2 z"
   id="path241" />

					</g>

					<g
   id="g243">
						<path
   style="fill:#222222"
   d="m 141.977,340.465 h -75.73 c -1.104,0 -2,-0.896 -2,-2 0,-1.104 0.896,-2 2,-2 h 75.73 c 1.104,0 2,0.896 2,2 0,1.104 -0.896,2 -2,2 z"
   id="path242" />

					</g>

					<g
   id="g244">
						<path
   style="fill:#222222"
   d="m 141.977,375.144 h -75.73 c -1.104,0 -2,-0.896 -2,-2 0,-1.104 0.896,-2 2,-2 h 75.73 c 1.104,0 2,0.896 2,2 0,1.104 -0.896,2 -2,2 z"
   id="path243" />

					</g>

					<g
   id="g245">
						<path
   style="fill:#222222"
   d="m 141.977,409.823 h -75.73 c -1.104,0 -2,-0.896 -2,-2 0,-1.104 0.896,-2 2,-2 h 75.73 c 1.104,0 2,0.896 2,2 0,1.105 -0.896,2 -2,2 z"
   id="path244" />

					</g>

				</g>

			</g>

		</g>

	</g>

	<g
   id="g250">

			<line
   style="fill:none;stroke:#222222;stroke-width:4;stroke-linecap:round;stroke-linejoin:round;stroke-miterlimit:10"
   x1="141.97701"
   y1="265.79099"
   x2="141.97701"
   y2="415.69299"
   id="line249" />

	</g>

	<g
   id="g252">

			<line
   style="fill:none;stroke:#222222;stroke-width:4;stroke-linecap:round;stroke-linejoin:round;stroke-miterlimit:10"
   x1="141.97701"
   y1="142.92101"
   x2="68.247002"
   y2="142.92101"
   id="line250" />


			<line
   style="fill:none;stroke:#222222;stroke-width:4;stroke-linecap:round;stroke-linejoin:round;stroke-miterlimit:10"
   x1="141.97701"
   y1="204.228"
   x2="67.194"
   y2="204.228"
   id="line251" />


			<line
   style="fill:none;stroke:#222222;stroke-width:4;stroke-linecap:round;stroke-linejoin:round;stroke-miterlimit:10"
   x1="141.97701"
   y1="136.98"
   x2="141.97701"
   y2="278.01001"
   id="line252" />

	</g>

	<g
   id="g256">
		<g
   id="g253">
			<path
   style="fill:#222222"
   d="m 439.965,409.824 c -0.221,0 -0.445,-0.037 -0.665,-0.115 L 140.73,304.43 c -1.042,-0.367 -1.588,-1.509 -1.221,-2.551 0.368,-1.042 1.511,-1.591 2.551,-1.221 l 298.57,105.28 c 1.042,0.367 1.588,1.509 1.221,2.551 -0.29,0.821 -1.061,1.335 -1.886,1.335 z"
   id="path252" />

		</g>

		<g
   id="g254">
			<path
   style="fill:#222222"
   d="m 141.977,409.824 c -0.819,0 -1.588,-0.508 -1.882,-1.323 -0.374,-1.04 0.165,-2.186 1.205,-2.56 l 297.542,-107.12 c 1.037,-0.373 2.185,0.165 2.559,1.204 0.374,1.039 -0.165,2.186 -1.205,2.56 l -297.543,107.12 c -0.222,0.08 -0.451,0.119 -0.676,0.119 z"
   id="path253" />

		</g>

		<g
   style="opacity:0.1"
   id="g255">
			<path
   style="fill:#888888"
   d="m 141.977,409.824 c -0.819,0 -1.588,-0.508 -1.882,-1.323 -0.374,-1.04 0.165,-2.186 1.205,-2.56 l 297.542,-107.12 c 1.037,-0.373 2.185,0.165 2.559,1.204 0.374,1.039 -0.165,2.186 -1.205,2.56 l -297.543,107.12 c -0.222,0.08 -0.451,0.119 -0.676,0.119 z"
   id="path254" />

		</g>

	</g>

	<path
   style="fill:none;stroke:#263238;stroke-miterlimit:10"
   d="M 185.978,93.838"
   id="path256" />

	<path
   style="opacity:0.1;fill:#888888"
   d="m 170.429,93.386 c 0,0.735 -0.596,1.331 -1.331,1.331 -0.735,0 -1.331,-0.596 -1.331,-1.331 0,-0.735 0.596,-1.331 1.331,-1.331 0.735,0 1.331,0.596 1.331,1.331 z"
   id="path257" />

	<g
   id="g259">

			<line
   style="fill:none;stroke:#222222;stroke-width:4;stroke-linecap:round;stroke-linejoin:round;stroke-miterlimit:10"
   x1="200.526"
   y1="195.67799"
   x2="200.526"
   y2="150.048"
   id="line257" />


			<line
   style="fill:none;stroke:#222222;stroke-width:4;stroke-linecap:round;stroke-linejoin:round;stroke-miterlimit:10"
   x1="388.71799"
   y1="195.67799"
   x2="388.71799"
   y2="150.048"
   id="line258" />

		<g
   id="g258">
			<path
   style="fill:#222222"
   d="m 437.774,150.049 v 45.624 H 144.517 v -45.624 h 293.257 m 0,-4 H 144.517 c -2.209,0 -4,1.791 -4,4 v 45.624 c 0,2.209 1.791,4 4,4 h 293.258 c 2.209,0 4,-1.791 4,-4 v -45.624 c -10e-4,-2.209 -1.791,-4 -4.001,-4 z"
   id="path258" />

		</g>

	</g>

</g>
    </g>
  </g>
</svg>
